<mxfile host="app.diagrams.net" modified="2022-03-21T00:09:03.151Z" agent="5.0 (Windows NT 10.0; Win64; x64) AppleWebKit/537.36 (KHTML, like Gecko) Chrome/99.0.4844.74 Safari/537.36 Edg/99.0.1150.46" etag="ZkcRNg3EwJUx89qZs7ZZ" version="17.1.3" type="github">
  <diagram id="9KL8EiFrcvtgkWqstwBM" name="Page-1">
    <mxGraphModel dx="2272" dy="1886" grid="1" gridSize="10" guides="1" tooltips="1" connect="1" arrows="1" fold="1" page="1" pageScale="1" pageWidth="850" pageHeight="1100" math="0" shadow="0">
      <root>
        <mxCell id="0" />
        <mxCell id="1" parent="0" />
        <mxCell id="_1BHJZtYq-9tswRWz4bY-12" style="edgeStyle=orthogonalEdgeStyle;rounded=0;orthogonalLoop=1;jettySize=auto;html=1;exitX=0.5;exitY=1;exitDx=0;exitDy=0;entryX=0.5;entryY=0;entryDx=0;entryDy=0;" edge="1" parent="1" source="_1BHJZtYq-9tswRWz4bY-1" target="_1BHJZtYq-9tswRWz4bY-2">
          <mxGeometry relative="1" as="geometry" />
        </mxCell>
        <mxCell id="_1BHJZtYq-9tswRWz4bY-1" value="Start" style="ellipse;whiteSpace=wrap;html=1;aspect=fixed;" vertex="1" parent="1">
          <mxGeometry x="80" y="-44" width="80" height="80" as="geometry" />
        </mxCell>
        <mxCell id="_1BHJZtYq-9tswRWz4bY-2" value="Initialize Vending Machine&lt;br&gt;-Load Inventory&lt;br&gt;-Load Prices&lt;br&gt;-Reset Interface" style="rounded=0;whiteSpace=wrap;html=1;" vertex="1" parent="1">
          <mxGeometry x="60" y="66" width="120" height="210" as="geometry" />
        </mxCell>
        <mxCell id="_1BHJZtYq-9tswRWz4bY-4" value="Complete A Transaction&lt;br&gt;-Vend Item&lt;br&gt;-Update Inventory&lt;br&gt;Return to Idle" style="rounded=0;whiteSpace=wrap;html=1;" vertex="1" parent="1">
          <mxGeometry x="340" y="540" width="265" height="120" as="geometry" />
        </mxCell>
        <mxCell id="_1BHJZtYq-9tswRWz4bY-8" value="Destroy Transaction&lt;br&gt;-Remove remaining balance&lt;br&gt;-Reset timer&lt;br&gt;-Return Change&lt;br&gt;-Enable Selections" style="rounded=0;whiteSpace=wrap;html=1;" vertex="1" parent="1">
          <mxGeometry x="-330" y="545" width="250" height="110" as="geometry" />
        </mxCell>
        <mxCell id="_1BHJZtYq-9tswRWz4bY-9" value="Clean Up&lt;br&gt;-Return Any Change&lt;br&gt;-Update Inventory&lt;br&gt;-Reset Interface" style="rounded=0;whiteSpace=wrap;html=1;" vertex="1" parent="1">
          <mxGeometry x="347.5" y="380" width="250" height="110" as="geometry" />
        </mxCell>
        <mxCell id="_1BHJZtYq-9tswRWz4bY-10" value="Stop" style="ellipse;whiteSpace=wrap;html=1;aspect=fixed;" vertex="1" parent="1">
          <mxGeometry x="680" y="395" width="80" height="80" as="geometry" />
        </mxCell>
        <mxCell id="_1BHJZtYq-9tswRWz4bY-13" value="Default First State" style="endArrow=classic;html=1;rounded=0;exitX=0.5;exitY=1;exitDx=0;exitDy=0;" edge="1" parent="1" source="_1BHJZtYq-9tswRWz4bY-2">
          <mxGeometry width="50" height="50" relative="1" as="geometry">
            <mxPoint x="400" y="450" as="sourcePoint" />
            <mxPoint x="120" y="390" as="targetPoint" />
          </mxGeometry>
        </mxCell>
        <mxCell id="_1BHJZtYq-9tswRWz4bY-18" value="&lt;span&gt;Idle&lt;/span&gt;&lt;br&gt;&lt;span&gt;-Prompt User for Selection&lt;/span&gt;&lt;br&gt;&lt;span&gt;-Prompt User with remaining Balance&lt;/span&gt;&lt;br&gt;&lt;span&gt;-Display Timeout&lt;/span&gt;" style="rhombus;whiteSpace=wrap;html=1;" vertex="1" parent="1">
          <mxGeometry x="-10" y="370" width="260" height="130" as="geometry" />
        </mxCell>
        <mxCell id="_1BHJZtYq-9tswRWz4bY-20" value="&lt;span&gt;Create Transaction&lt;br&gt;&lt;/span&gt;-Remember any Selections&lt;br&gt;&lt;span&gt;-Display Balance&lt;br&gt;-Display Timeout&lt;br&gt;&lt;/span&gt;" style="rhombus;whiteSpace=wrap;html=1;" vertex="1" parent="1">
          <mxGeometry x="-15" y="540" width="270" height="120" as="geometry" />
        </mxCell>
        <mxCell id="_1BHJZtYq-9tswRWz4bY-21" value="Item Selected OR Money Inserted" style="endArrow=classic;html=1;rounded=0;exitX=0.5;exitY=1;exitDx=0;exitDy=0;entryX=0.5;entryY=0;entryDx=0;entryDy=0;" edge="1" parent="1" source="_1BHJZtYq-9tswRWz4bY-18" target="_1BHJZtYq-9tswRWz4bY-20">
          <mxGeometry width="50" height="50" relative="1" as="geometry">
            <mxPoint x="180" y="440" as="sourcePoint" />
            <mxPoint x="230" y="390" as="targetPoint" />
          </mxGeometry>
        </mxCell>
        <mxCell id="_1BHJZtYq-9tswRWz4bY-22" value="Cancel" style="endArrow=classic;html=1;rounded=0;exitX=0;exitY=0.5;exitDx=0;exitDy=0;" edge="1" parent="1" source="_1BHJZtYq-9tswRWz4bY-20" target="_1BHJZtYq-9tswRWz4bY-8">
          <mxGeometry width="50" height="50" relative="1" as="geometry">
            <mxPoint x="180" y="440" as="sourcePoint" />
            <mxPoint x="230" y="390" as="targetPoint" />
          </mxGeometry>
        </mxCell>
        <mxCell id="_1BHJZtYq-9tswRWz4bY-23" value="Balance Met" style="endArrow=classic;html=1;rounded=0;" edge="1" parent="1" target="_1BHJZtYq-9tswRWz4bY-4">
          <mxGeometry width="50" height="50" relative="1" as="geometry">
            <mxPoint x="250" y="600" as="sourcePoint" />
            <mxPoint x="230" y="390" as="targetPoint" />
          </mxGeometry>
        </mxCell>
        <mxCell id="_1BHJZtYq-9tswRWz4bY-25" value="Stopped" style="endArrow=classic;html=1;rounded=0;exitX=0.5;exitY=0;exitDx=0;exitDy=0;entryX=0.5;entryY=1;entryDx=0;entryDy=0;" edge="1" parent="1" source="_1BHJZtYq-9tswRWz4bY-4" target="_1BHJZtYq-9tswRWz4bY-9">
          <mxGeometry width="50" height="50" relative="1" as="geometry">
            <mxPoint x="460" y="540" as="sourcePoint" />
            <mxPoint x="510" y="490" as="targetPoint" />
          </mxGeometry>
        </mxCell>
        <mxCell id="_1BHJZtYq-9tswRWz4bY-26" value="" style="endArrow=classic;html=1;rounded=0;exitX=1;exitY=0.5;exitDx=0;exitDy=0;entryX=0;entryY=0.5;entryDx=0;entryDy=0;" edge="1" parent="1" source="_1BHJZtYq-9tswRWz4bY-9" target="_1BHJZtYq-9tswRWz4bY-10">
          <mxGeometry width="50" height="50" relative="1" as="geometry">
            <mxPoint x="180" y="530" as="sourcePoint" />
            <mxPoint x="230" y="480" as="targetPoint" />
          </mxGeometry>
        </mxCell>
        <mxCell id="_1BHJZtYq-9tswRWz4bY-27" value="Stopped" style="endArrow=classic;html=1;rounded=0;exitX=1;exitY=0.5;exitDx=0;exitDy=0;entryX=0;entryY=0.5;entryDx=0;entryDy=0;" edge="1" parent="1" source="_1BHJZtYq-9tswRWz4bY-18" target="_1BHJZtYq-9tswRWz4bY-9">
          <mxGeometry width="50" height="50" relative="1" as="geometry">
            <mxPoint x="240" y="500" as="sourcePoint" />
            <mxPoint x="290" y="450" as="targetPoint" />
          </mxGeometry>
        </mxCell>
        <mxCell id="_1BHJZtYq-9tswRWz4bY-28" value="Previous Complete" style="endArrow=classic;startArrow=classic;html=1;rounded=0;entryX=0;entryY=0;entryDx=0;entryDy=0;" edge="1" parent="1" source="_1BHJZtYq-9tswRWz4bY-18" target="_1BHJZtYq-9tswRWz4bY-4">
          <mxGeometry width="50" height="50" relative="1" as="geometry">
            <mxPoint x="250" y="530" as="sourcePoint" />
            <mxPoint x="300" y="480" as="targetPoint" />
          </mxGeometry>
        </mxCell>
        <mxCell id="_1BHJZtYq-9tswRWz4bY-29" value="Cancelled" style="endArrow=classic;html=1;rounded=0;" edge="1" parent="1">
          <mxGeometry width="50" height="50" relative="1" as="geometry">
            <mxPoint x="480" y="660" as="sourcePoint" />
            <mxPoint x="-200" y="660" as="targetPoint" />
            <Array as="points">
              <mxPoint x="480" y="720" />
              <mxPoint x="-200" y="720" />
            </Array>
          </mxGeometry>
        </mxCell>
        <mxCell id="_1BHJZtYq-9tswRWz4bY-30" value="" style="endArrow=classic;html=1;rounded=0;entryX=0;entryY=0.5;entryDx=0;entryDy=0;" edge="1" parent="1" target="_1BHJZtYq-9tswRWz4bY-18">
          <mxGeometry width="50" height="50" relative="1" as="geometry">
            <mxPoint x="-200" y="540" as="sourcePoint" />
            <mxPoint x="230" y="520" as="targetPoint" />
            <Array as="points">
              <mxPoint x="-200" y="435" />
            </Array>
          </mxGeometry>
        </mxCell>
        <mxCell id="_1BHJZtYq-9tswRWz4bY-31" value="Reset Complete AND not Stopped" style="edgeLabel;html=1;align=center;verticalAlign=middle;resizable=0;points=[];" vertex="1" connectable="0" parent="_1BHJZtYq-9tswRWz4bY-30">
          <mxGeometry x="0.2339" y="1" relative="1" as="geometry">
            <mxPoint as="offset" />
          </mxGeometry>
        </mxCell>
      </root>
    </mxGraphModel>
  </diagram>
</mxfile>
